<?xml version="1.0" encoding="UTF-8" standalone="no"?>
<!-- Created with Inkscape (http://www.inkscape.org/) -->

<svg
   width="1280"
   height="720"
   viewBox="0 0 338.66668 190.49999"
   version="1.1"
   id="svg5"
   inkscape:version="1.4 (e7c3feb, 2024-10-09)"
   sodipodi:docname="MySoziVideoSnippet.svg"
   xmlns:inkscape="http://www.inkscape.org/namespaces/inkscape"
   xmlns:sodipodi="http://sodipodi.sourceforge.net/DTD/sodipodi-0.dtd"
   xmlns="http://www.w3.org/2000/svg"
   xmlns:svg="http://www.w3.org/2000/svg"
   xmlns:ns0="http://sozi.baierouge.fr">
  <sodipodi:namedview
     id="namedview7"
     pagecolor="#ffffff"
     bordercolor="#000000"
     borderopacity="0.25"
     inkscape:showpageshadow="false"
     inkscape:pageopacity="0.0"
     inkscape:pagecheckerboard="0"
     inkscape:deskcolor="#d1d1d1"
     inkscape:document-units="px"
     showgrid="false"
     inkscape:zoom="0.40515981"
     inkscape:cx="688.61717"
     inkscape:cy="328.26553"
     inkscape:window-width="1366"
     inkscape:window-height="691"
     inkscape:window-x="0"
     inkscape:window-y="900"
     inkscape:window-maximized="1"
     inkscape:current-layer="layer4" />
  <defs
     id="defs2" />
  <g
     inkscape:label="Background Layer"
     inkscape:groupmode="layer"
     id="layer1" />
  <g
     inkscape:groupmode="layer"
     id="layer2"
     inkscape:label="Image Layer" />
  <g
     inkscape:groupmode="layer"
     id="layer3"
     inkscape:label="Text Layer" />
  <g
     inkscape:groupmode="layer"
     id="layer4"
     inkscape:label="Header Layer">
    <path
       d="m 137.23473,25.975483 v -4.545459 h 0.90537 l 1.0759,3.218408 q 0.14883,0.449585 0.21704,0.672827 0.0775,-0.248047 0.24185,-0.728638 l 1.0883,-3.162597 h 0.80926 v 4.545459 h -0.57981 v -3.804419 l -1.32085,3.804419 h -0.5426 l -1.31465,-3.869531 v 3.869531 z m 5.21208,1.268139 -0.062,-0.523999 q 0.18294,0.04961 0.31936,0.04961 0.18604,0 0.29766,-0.06201 0.11162,-0.06201 0.18293,-0.173633 0.0527,-0.08372 0.17054,-0.415478 0.0155,-0.04651 0.0496,-0.136426 l -1.24954,-3.299023 h 0.60151 l 0.68523,1.90686 q 0.13333,0.362768 0.23875,0.762744 0.0961,-0.384473 0.22944,-0.750342 l 0.70383,-1.919262 h 0.55811 l -1.25264,3.348632 q -0.20154,0.542603 -0.31316,0.747241 -0.14882,0.275953 -0.34106,0.403077 -0.19224,0.130224 -0.45889,0.130224 -0.16123,0 -0.35966,-0.06821 z m 8.27857,-2.86184 0.60151,0.151928 q -0.18914,0.74104 -0.68213,1.131714 -0.48989,0.387573 -1.19993,0.387573 -0.73483,0 -1.19682,-0.297656 -0.45889,-0.300757 -0.70073,-0.868164 -0.23875,-0.567407 -0.23875,-1.21853 0,-0.710034 0.26975,-1.237134 0.27285,-0.5302 0.77205,-0.803052 0.50229,-0.275952 1.10381,-0.275952 0.68213,0 1.14721,0.347266 0.46509,0.347265 0.64803,0.976684 l -0.59222,0.139527 q -0.15813,-0.496094 -0.45888,-0.722437 -0.30076,-0.226343 -0.75655,-0.226343 -0.52399,0 -0.87746,0.251148 -0.35037,0.251147 -0.49299,0.675928 -0.14263,0.421679 -0.14263,0.871264 0,0.57981 0.16743,1.013892 0.17053,0.430981 0.5271,0.644922 0.35657,0.21394 0.77205,0.21394 0.50539,0 0.85576,-0.291455 0.35036,-0.291455 0.47439,-0.865063 z m 1.33635,1.593701 v -4.545459 h 0.61702 l 2.38745,3.568774 v -3.568774 h 0.57671 v 4.545459 h -0.61702 l -2.38745,-3.571875 v 3.571875 z m 5.87251,0 v -1.925464 l -1.75183,-2.619995 h 0.73174 l 0.89607,1.370459 q 0.24804,0.384472 0.46198,0.768945 0.20464,-0.356567 0.4961,-0.803052 l 0.88056,-1.336352 h 0.70073 l -1.81384,2.619995 v 1.925464 z m 5.90351,0 -1.76113,-4.545459 h 0.65112 l 1.18133,3.302124 q 0.14262,0.396875 0.23874,0.74414 0.10542,-0.37207 0.24495,-0.74414 l 1.22783,-3.302124 h 0.61392 l -1.77974,4.545459 z m 2.75332,-3.903638 v -0.641821 h 0.55811 v 0.641821 z m 0,3.903638 v -3.292822 h 0.55811 v 3.292822 z m 3.54397,0 v -0.415479 q -0.31316,0.489893 -0.92087,0.489893 -0.39378,0 -0.72554,-0.217041 -0.32866,-0.217041 -0.51159,-0.604614 -0.17984,-0.390674 -0.17984,-0.89607 0,-0.492993 0.16433,-0.892969 0.16433,-0.403076 0.493,-0.617016 0.32866,-0.213941 0.73483,-0.213941 0.29766,0 0.5302,0.127124 0.23255,0.124024 0.37828,0.325562 v -1.630908 h 0.555 v 4.545459 z m -1.76423,-1.643311 q 0,0.63252 0.26665,0.945679 0.26665,0.313159 0.62942,0.313159 0.36587,0 0.62012,-0.297656 0.25734,-0.300757 0.25734,-0.914673 0,-0.675928 -0.26044,-0.992187 -0.26045,-0.31626 -0.64183,-0.31626 -0.37207,0 -0.62321,0.303857 -0.24805,0.303858 -0.24805,0.958081 z m 5.41362,0.58291 0.57671,0.07131 q -0.13642,0.505395 -0.50539,0.784448 -0.36897,0.279053 -0.94258,0.279053 -0.72244,0 -1.14722,-0.443384 -0.42168,-0.446484 -0.42168,-1.249536 0,-0.830957 0.42788,-1.289844 0.42788,-0.458887 1.11001,-0.458887 0.66043,0 1.07901,0.449585 0.41857,0.449585 0.41857,1.265039 0,0.04961 -0.003,0.148829 h -2.45566 q 0.031,0.542602 0.30696,0.830957 0.27595,0.288354 0.68833,0.288354 0.30696,0 0.524,-0.16123 0.21704,-0.161231 0.34416,-0.514698 z m -1.83244,-0.90227 h 1.83864 q -0.0372,-0.415479 -0.21084,-0.623218 -0.26665,-0.322461 -0.69143,-0.322461 -0.38447,0 -0.64802,0.257349 -0.26045,0.257348 -0.28835,0.68833 z m 2.90214,0.31626 q 0,-0.914673 0.5085,-1.354956 0.42478,-0.36587 1.0356,-0.36587 0.67902,0 1.11,0.446485 0.43099,0.443384 0.43099,1.227832 0,0.63562 -0.19224,1.001489 -0.18914,0.362769 -0.555,0.564307 -0.36277,0.201538 -0.79375,0.201538 -0.69144,0 -1.11932,-0.443384 -0.42478,-0.443384 -0.42478,-1.277441 z m 0.57361,0 q 0,0.632519 0.27595,0.948779 0.27596,0.313159 0.69454,0.313159 0.41547,0 0.69143,-0.31626 0.27595,-0.316259 0.27595,-0.964282 0,-0.610815 -0.27905,-0.923974 -0.27596,-0.31626 -0.68833,-0.31626 -0.41858,0 -0.69454,0.313159 -0.27595,0.313159 -0.27595,0.945679 z m 4.79661,0.186035 0.56741,-0.04961 q 0.0403,0.341065 0.18603,0.561206 0.14883,0.217041 0.45889,0.353467 0.31006,0.133325 0.69763,0.133325 0.34417,0 0.60772,-0.102319 0.26355,-0.102319 0.39067,-0.279053 0.13022,-0.179834 0.13022,-0.390673 0,-0.213941 -0.12402,-0.372071 -0.12402,-0.16123 -0.40928,-0.269751 -0.18293,-0.07131 -0.80925,-0.220141 -0.62632,-0.151929 -0.87746,-0.285254 -0.32557,-0.170532 -0.4868,-0.42168 -0.15813,-0.254248 -0.15813,-0.567407 0,-0.344165 0.19534,-0.641821 0.19534,-0.300757 0.57051,-0.455787 0.37517,-0.155029 0.83406,-0.155029 0.50539,0 0.88986,0.164331 0.38758,0.161231 0.59532,0.47749 0.20774,0.31626 0.22324,0.716236 l -0.57671,0.04341 q -0.0465,-0.430981 -0.31626,-0.651123 -0.26665,-0.220142 -0.79065,-0.220142 -0.5457,0 -0.79685,0.201538 -0.24805,0.198438 -0.24805,0.480591 0,0.244947 0.17674,0.403076 0.17363,0.15813 0.90537,0.325562 0.73484,0.164331 1.00769,0.288354 0.39687,0.182935 0.58601,0.465088 0.18913,0.279053 0.18913,0.644922 0,0.362769 -0.20773,0.68523 -0.20774,0.31936 -0.59842,0.499194 -0.38757,0.176733 -0.87436,0.176733 -0.61702,0 -1.0356,-0.179834 -0.41548,-0.179834 -0.65422,-0.539502 -0.23565,-0.362768 -0.24805,-0.818554 z m 4.36872,1.460376 v -3.292822 h 0.5023 v 0.468188 q 0.36277,-0.542603 1.048,-0.542603 0.29765,0 0.5457,0.108521 0.25115,0.10542 0.37517,0.279053 0.12402,0.173633 0.17363,0.412378 0.031,0.155029 0.031,0.542602 v 2.024683 h -0.55811 v -2.002979 q 0,-0.341064 -0.0651,-0.508496 -0.0651,-0.170532 -0.23254,-0.269751 -0.16433,-0.102319 -0.38758,-0.102319 -0.35656,0 -0.61701,0.226343 -0.25735,0.226342 -0.25735,0.858862 v 1.79834 z m 3.53467,-3.903638 v -0.641821 h 0.55811 v 0.641821 z m 0,3.903638 v -3.292822 h 0.55811 v 3.292822 z m 1.40767,1.261938 v -4.55476 h 0.5085 v 0.42788 q 0.17983,-0.251147 0.40617,-0.375171 0.22635,-0.127124 0.54881,-0.127124 0.42168,0 0.74414,0.217041 0.32246,0.217042 0.48679,0.613916 0.16433,0.393775 0.16433,0.865064 0,0.505395 -0.18293,0.911572 -0.17984,0.403076 -0.5271,0.620117 -0.34417,0.213941 -0.72554,0.213941 -0.27905,0 -0.5023,-0.117822 -0.22014,-0.117823 -0.36276,-0.297657 v 1.603003 z m 0.5054,-2.889746 q 0,0.63562 0.25734,0.939478 0.25735,0.303857 0.62322,0.303857 0.37207,0 0.63562,-0.313159 0.26665,-0.31626 0.26665,-0.976685 0,-0.629419 -0.26045,-0.942578 -0.25735,-0.313159 -0.61701,-0.313159 -0.35657,0 -0.63252,0.334863 -0.27285,0.331763 -0.27285,0.967383 z m 3.02617,2.889746 v -4.55476 h 0.50849 v 0.42788 q 0.17984,-0.251147 0.40618,-0.375171 0.22634,-0.127124 0.5488,-0.127124 0.42168,0 0.74414,0.217041 0.32246,0.217042 0.4868,0.613916 0.16433,0.393775 0.16433,0.865064 0,0.505395 -0.18294,0.911572 -0.17983,0.403076 -0.5271,0.620117 -0.34416,0.213941 -0.72553,0.213941 -0.27906,0 -0.5023,-0.117822 -0.22014,-0.117823 -0.36277,-0.297657 v 1.603003 z m 0.50539,-2.889746 q 0,0.63562 0.25735,0.939478 0.25735,0.303857 0.62322,0.303857 0.37207,0 0.63562,-0.313159 0.26665,-0.31626 0.26665,-0.976685 0,-0.629419 -0.26045,-0.942578 -0.25735,-0.313159 -0.61702,-0.313159 -0.35656,0 -0.63252,0.334863 -0.27285,0.331763 -0.27285,0.967383 z m 5.2803,0.567407 0.57671,0.07131 q -0.13643,0.505395 -0.5054,0.784448 -0.36897,0.279053 -0.94258,0.279053 -0.72243,0 -1.14721,-0.443384 -0.42168,-0.446484 -0.42168,-1.249536 0,-0.830957 0.42788,-1.289844 0.42788,-0.458887 1.11001,-0.458887 0.66042,0 1.079,0.449585 0.41858,0.449585 0.41858,1.265039 0,0.04961 -0.003,0.148829 h -2.45566 q 0.031,0.542602 0.30696,0.830957 0.27595,0.288354 0.68833,0.288354 0.30695,0 0.52399,-0.16123 0.21705,-0.161231 0.34417,-0.514698 z m -1.83245,-0.90227 h 1.83865 q -0.0372,-0.415479 -0.21084,-0.623218 -0.26665,-0.322461 -0.69143,-0.322461 -0.38447,0 -0.64802,0.257349 -0.26045,0.257348 -0.28836,0.68833 z m 4.32842,1.463476 0.0806,0.492994 q -0.23565,0.04961 -0.42168,0.04961 -0.30386,0 -0.47129,-0.09612 -0.16743,-0.09612 -0.23565,-0.251148 -0.0682,-0.15813 -0.0682,-0.660424 v -1.894458 h -0.40928 V 22.68266 h 0.40928 v -0.815455 l 0.555,-0.334863 v 1.150318 h 0.56121 v 0.434082 h -0.56121 v 1.925463 q 0,0.238746 0.0279,0.306958 0.031,0.06821 0.0961,0.108521 0.0682,0.04031 0.19223,0.04031 0.093,0 0.24495,-0.02171 z"
       id="text1"
       style="font-size:6.35px;font-family:Arial;-inkscape-font-specification:Arial;text-align:center;text-anchor:middle;stroke:#030303;stroke-width:0.0381853"
       aria-label="My CNY Video Snippet" />
    <g
       id="g1"
       transform="matrix(0.16882279,0,0,0.16882279,169.33333,80.012573)">
      <rect
         x="-426"
         y="-240"
         width="852"
         height="480"
         stroke="none"
         fill="#aaaaaa"
         id="rect1">
        <ns0:video
           ns0:type="video/mp4"
           ns0:src="/home/dickho/V/My Sozi video &amp; audio experiment/My-recent SOZI video/CNYvideoSnippetHandbrake.mp4"
           ns0:loop="false"
           ns0:controls="true" />
      </rect>
    </g>
  </g>
</svg>
